<svg width="1920.000000" height="728.000000" viewBox="0 0 1920 728" fill="none" xmlns="http://www.w3.org/2000/svg" xmlns:xlink="http://www.w3.org/1999/xlink">
	<desc>
			Created with Pixso.
	</desc>
	<defs/>
	<path id="Vector" d="M1689.02 48.85L1920 29L1920 523L1920 699.45L1693.83 718.85L1689.02 719.18L1684.21 719.5L1679.4 719.82L1674.59 720.14L1669.77 720.44L1664.96 720.75L1660.15 721.05L1655.34 721.34L1650.53 721.63L1645.71 721.91L1640.9 722.19L1636.09 722.46L1631.28 722.72L1626.47 722.98L1621.65 723.23L1616.84 723.48L1612.03 723.72L1607.22 723.96L1602.41 724.19L1597.59 724.41L1592.78 724.62L1587.97 724.83L1583.16 725.04L1578.35 725.24L1573.53 725.43L1568.72 725.61L1563.91 725.79L1559.1 725.96L1554.29 726.12L1549.47 726.28L1544.66 726.43L1539.85 726.58L1535.04 726.71L1530.23 726.84L1525.41 726.97L1520.6 727.08L1515.79 727.19L1510.98 727.3L1506.17 727.39L1501.35 727.48L1496.54 727.56L1491.73 727.64L1486.92 727.71L1482.11 727.77L1477.29 727.82L1472.48 727.87L1467.67 727.91L1462.86 727.94L1458.04 727.96L1453.23 727.98L1448.42 727.99L1443.61 728L1438.8 727.99L1433.98 727.98L1429.17 727.96L1424.36 727.94L1419.55 727.91L1414.74 727.87L1409.92 727.82L1405.11 727.77L1400.3 727.71L1395.49 727.64L1390.68 727.56L1385.86 727.48L1381.05 727.39L1376.24 727.3L1371.43 727.19L1366.62 727.08L1361.8 726.97L1356.99 726.84L1352.18 726.71L1347.37 726.58L1342.56 726.43L1337.74 726.28L1332.93 726.12L1328.12 725.96L1323.31 725.79L1318.5 725.61L1313.68 725.43L1308.87 725.24L1304.06 725.04L1299.25 724.83L1294.43 724.62L1289.62 724.41L1284.81 724.19L1280 723.96L1275.18 723.72L1270.38 723.48L1265.56 723.23L1260.75 722.98L1255.93 722.72L1251.13 722.46L1246.31 722.19L1241.5 721.91L1236.68 721.63L1231.88 721.34L1227.06 721.05L1222.26 720.75L1217.43 720.44L1212.63 720.14L1207.81 719.82L1203.01 719.5L1198.19 719.18L1193.38 718.85L731.42 679.14L726.61 678.81L721.8 678.49L716.99 678.17L712.18 677.86L707.36 677.55L702.55 677.24L697.74 676.94L692.93 676.65L688.12 676.36L683.3 676.08L678.49 675.8L673.68 675.53L668.87 675.27L664.06 675.01L659.24 674.76L654.43 674.51L649.62 674.27L644.81 674.03L640 673.81L635.18 673.58L630.37 673.37L625.56 673.16L620.75 672.95L615.93 672.76L611.12 672.56L606.31 672.38L601.5 672.2L596.69 672.03L591.88 671.87L587.06 671.71L582.25 671.56L577.44 671.41L572.63 671.28L567.81 671.15L563 671.02L558.19 670.91L553.38 670.8L548.57 670.69L543.76 670.6L538.94 670.51L534.13 670.43L529.32 670.35L524.51 670.28L519.69 670.22L514.88 670.17L510.07 670.12L505.26 670.08L500.45 670.05L495.63 670.03L490.82 670.01L486.01 670L481.2 670L476.39 670L471.57 670.01L466.76 670.03L461.95 670.05L457.14 670.08L452.33 670.12L447.51 670.17L442.7 670.22L437.89 670.28L433.08 670.35L428.27 670.43L423.45 670.51L418.64 670.6L413.83 670.69L409.02 670.8L404.21 670.91L399.39 671.02L394.58 671.15L389.77 671.28L384.96 671.41L380.15 671.56L375.33 671.71L370.52 671.87L365.71 672.03L360.9 672.2L356.09 672.38L351.27 672.56L346.46 672.76L341.65 672.95L336.84 673.16L332.03 673.37L327.21 673.58L322.4 673.81L317.59 674.03L312.78 674.27L307.97 674.51L303.15 674.76L298.34 675.01L293.53 675.27L288.72 675.53L283.91 675.8L279.09 676.08L274.28 676.36L269.47 676.65L264.66 676.94L259.85 677.24L255.03 677.55L250.22 677.86L245.41 678.17L240.6 678.49L235.78 678.81L230.97 679.14L0 699L0 181L0 181L0 28.54L226.16 9.14L230.97 8.81L235.78 8.49L240.6 8.17L245.41 7.85L250.22 7.55L255.03 7.24L259.85 6.94L264.66 6.65L269.47 6.36L274.28 6.08L279.09 5.8L283.91 5.53L288.72 5.27L293.53 5.01L298.34 4.76L303.15 4.51L307.97 4.27L312.78 4.03L317.59 3.8L322.4 3.58L327.21 3.37L332.03 3.16L336.84 2.95L341.65 2.76L346.46 2.56L351.27 2.38L356.09 2.2L360.9 2.03L365.71 1.87L370.52 1.71L375.33 1.56L380.15 1.41L384.96 1.28L389.77 1.15L394.58 1.02L399.39 0.91L404.21 0.8L409.02 0.69L413.83 0.6L418.64 0.51L423.45 0.43L428.27 0.35L433.08 0.28L437.89 0.22L442.7 0.17L447.51 0.12L452.33 0.08L457.14 0.05L461.95 0.03L466.76 0.01L471.57 0L476.39 0L481.2 0L486.01 0.01L490.82 0.03L495.63 0.05L500.45 0.08L505.26 0.12L510.07 0.17L514.88 0.22L519.69 0.28L524.51 0.35L529.32 0.43L534.13 0.51L538.94 0.6L543.76 0.69L548.57 0.8L553.38 0.91L558.19 1.02L563 1.15L567.81 1.28L572.63 1.41L577.44 1.56L582.25 1.71L587.06 1.87L591.88 2.03L596.69 2.2L601.5 2.38L606.31 2.56L611.12 2.76L615.93 2.95L620.75 3.16L625.56 3.37L630.37 3.58L635.18 3.8L640 4.03L644.81 4.27L649.62 4.51L654.43 4.76L659.24 5.01L664.06 5.27L668.87 5.53L673.68 5.8L678.49 6.08L683.3 6.36L688.12 6.65L692.93 6.94L697.74 7.24L702.55 7.55L707.36 7.85L712.18 8.17L716.99 8.49L721.8 8.81L726.61 9.14L1188.56 48.85L1193.38 49.18L1198.19 49.5L1203.01 49.82L1207.81 50.14L1212.63 50.44L1217.43 50.75L1222.26 51.05L1227.06 51.34L1231.88 51.63L1236.68 51.91L1241.5 52.19L1246.31 52.46L1251.13 52.72L1255.93 52.98L1260.75 53.23L1265.56 53.48L1270.38 53.72L1275.18 53.96L1280 54.19L1284.81 54.41L1289.62 54.62L1294.43 54.83L1299.25 55.04L1304.06 55.24L1308.87 55.43L1313.68 55.61L1318.5 55.79L1323.31 55.96L1328.12 56.12L1332.93 56.28L1337.74 56.43L1342.56 56.58L1347.37 56.71L1352.18 56.84L1356.99 56.97L1361.8 57.08L1366.62 57.19L1371.43 57.3L1376.24 57.39L1381.05 57.48L1385.87 57.56L1390.68 57.64L1395.49 57.71L1400.3 57.77L1405.11 57.82L1409.92 57.87L1414.74 57.91L1419.55 57.94L1424.36 57.96L1429.17 57.98L1433.99 57.99L1438.8 58L1443.61 57.99L1448.42 57.98L1453.23 57.96L1458.04 57.94L1462.86 57.91L1467.67 57.87L1472.48 57.82L1477.29 57.77L1482.11 57.71L1486.92 57.64L1491.73 57.56L1496.54 57.48L1501.35 57.39L1506.17 57.3L1510.98 57.19L1515.79 57.08L1520.6 56.97L1525.41 56.84L1530.23 56.71L1535.04 56.58L1539.85 56.43L1544.66 56.28L1549.47 56.12L1554.29 55.96L1559.1 55.79L1563.91 55.61L1568.72 55.43L1573.53 55.24L1578.35 55.04L1583.16 54.83L1587.97 54.62L1592.78 54.41L1597.59 54.19L1602.41 53.96L1607.22 53.72L1612.03 53.48L1616.84 53.23L1621.65 52.98L1626.47 52.72L1631.28 52.46L1636.09 52.19L1640.9 51.91L1645.71 51.63L1650.53 51.34L1655.34 51.05L1660.15 50.75L1664.96 50.44L1669.77 50.14L1674.59 49.82L1679.4 49.5L1684.21 49.18L1689.02 48.85Z" fill="#0809A7" fill-opacity="1.000000" fill-rule="evenodd"/>
</svg>
