<svg width="1920.000000" height="850.000000" viewBox="0 0 1920 850" fill="none" xmlns="http://www.w3.org/2000/svg" xmlns:xlink="http://www.w3.org/1999/xlink">
	<desc>
			Created with Pixso.
	</desc>
	<defs/>
	<path id="Vector" d="M0 821L4.81 820.54L9.62 820.08L14.43 819.63L19.24 819.17L24.06 818.72L28.87 818.27L33.68 817.81L38.49 817.36L43.3 816.91L48.12 816.46L52.93 816.01L57.74 815.56L62.55 815.11L67.36 814.67L72.18 814.23L76.99 813.78L81.8 813.34L86.61 812.9L91.42 812.47L96.24 812.03L101.05 811.6L105.86 811.17L110.67 810.74L115.48 810.32L120.3 809.9L125.11 809.48L129.92 809.06L134.73 808.65L139.54 808.24L144.36 807.83L149.17 807.43L153.98 807.02L158.79 806.63L163.6 806.23L168.42 805.84L173.23 805.46L178.04 805.07L182.85 804.7L187.66 804.32L192.48 803.95L197.29 803.58L202.1 803.22L206.91 802.86L211.72 802.51L216.54 802.16L221.35 801.82L226.16 801.48L230.97 801.14L235.78 800.81L240.6 800.49L245.41 800.17L250.22 799.86L255.03 799.55L259.85 799.24L264.66 798.94L269.47 798.65L274.28 798.36L279.09 798.08L283.91 797.8L288.72 797.53L293.53 797.27L298.34 797.01L303.15 796.76L307.97 796.51L312.78 796.27L317.59 796.03L322.4 795.81L327.21 795.58L332.03 795.37L336.84 795.16L341.65 794.95L346.46 794.76L351.27 794.56L356.09 794.38L360.9 794.2L365.71 794.03L370.52 793.87L375.33 793.71L380.15 793.56L384.96 793.41L389.77 793.28L394.58 793.15L399.39 793.02L404.21 792.91L409.02 792.8L413.83 792.69L418.64 792.6L423.45 792.51L428.27 792.43L433.08 792.35L437.89 792.28L442.7 792.22L447.51 792.17L452.33 792.12L457.14 792.08L461.95 792.05L466.76 792.03L471.57 792.01L476.39 792L481.2 792L486.01 792L490.82 792.01L495.63 792.03L500.45 792.05L505.26 792.08L510.07 792.12L514.88 792.17L519.69 792.22L524.51 792.28L529.32 792.35L534.13 792.43L538.94 792.51L543.76 792.6L548.57 792.69L553.38 792.8L558.19 792.91L563 793.02L567.81 793.15L572.63 793.28L577.44 793.41L582.25 793.56L587.06 793.71L591.88 793.87L596.69 794.03L601.5 794.2L606.31 794.38L611.12 794.56L615.93 794.76L620.75 794.95L625.56 795.16L630.37 795.37L635.18 795.58L640 795.81L644.81 796.03L649.62 796.27L654.43 796.51L659.24 796.76L664.06 797.01L668.87 797.27L673.68 797.53L678.49 797.8L683.3 798.08L688.12 798.36L692.93 798.65L697.74 798.94L702.55 799.24L707.36 799.55L712.18 799.86L716.99 800.17L721.8 800.49L726.61 800.81L731.42 801.14L736.24 801.48L741.05 801.82L745.86 802.16L750.67 802.51L755.48 802.86L760.3 803.22L765.11 803.58L769.92 803.95L774.73 804.32L779.54 804.7L784.36 805.07L789.17 805.46L793.98 805.84L798.79 806.23L803.6 806.63L808.42 807.02L813.23 807.43L818.04 807.83L822.85 808.24L827.66 808.65L832.48 809.06L837.29 809.48L842.1 809.9L846.91 810.32L851.72 810.74L856.54 811.17L861.35 811.6L866.16 812.03L870.97 812.47L875.78 812.9L880.6 813.34L885.41 813.78L890.22 814.23L895.03 814.67L899.85 815.11L904.66 815.56L909.47 816.01L914.28 816.46L919.09 816.91L923.91 817.36L928.72 817.81L933.53 818.27L938.34 818.72L943.15 819.17L947.97 819.63L952.78 820.08L957.59 820.54L962.4 821L967.21 821.45L972.03 821.91L976.84 822.36L981.65 822.82L986.46 823.27L991.27 823.72L996.09 824.18L1000.9 824.63L1005.71 825.08L1010.53 825.53L1015.34 825.98L1020.15 826.43L1024.96 826.88L1029.77 827.32L1034.59 827.77L1039.4 828.21L1044.21 828.65L1049.02 829.09L1053.82 829.52L1058.65 829.96L1063.46 830.39L1068.27 830.82L1073.07 831.25L1077.89 831.67L1082.71 832.09L1087.52 832.51L1092.32 832.93L1097.14 833.34L1101.96 833.75L1106.77 834.16L1111.57 834.57L1116.39 834.97L1121.19 835.36L1126.01 835.76L1130.82 836.15L1135.64 836.53L1140.44 836.92L1145.26 837.3L1150.07 837.67L1154.89 838.04L1159.69 838.41L1164.51 838.77L1169.31 839.13L1174.13 839.48L1178.94 839.83L1183.76 840.17L1188.56 840.51L1193.38 840.85L1198.19 841.18L1203.01 841.5L1207.81 841.82L1212.63 842.14L1217.43 842.44L1222.26 842.75L1227.06 843.05L1231.88 843.34L1236.68 843.63L1241.5 843.91L1246.31 844.19L1251.13 844.46L1255.93 844.72L1260.75 844.98L1265.56 845.23L1270.38 845.48L1275.18 845.72L1280 845.96L1284.81 846.19L1289.62 846.41L1294.43 846.62L1299.25 846.83L1304.06 847.04L1308.87 847.24L1313.68 847.43L1318.5 847.61L1323.31 847.79L1328.12 847.96L1332.93 848.12L1337.74 848.28L1342.56 848.43L1347.37 848.58L1352.18 848.71L1356.99 848.84L1361.8 848.97L1366.62 849.08L1371.43 849.19L1376.24 849.3L1381.05 849.39L1385.86 849.48L1390.68 849.56L1395.49 849.64L1400.3 849.71L1405.11 849.77L1409.92 849.82L1414.74 849.87L1419.55 849.91L1424.36 849.94L1429.17 849.96L1433.98 849.98L1438.8 849.99L1443.61 850L1448.42 849.99L1453.23 849.98L1458.04 849.96L1462.86 849.94L1467.67 849.91L1472.48 849.87L1477.29 849.82L1482.11 849.77L1486.92 849.71L1491.73 849.64L1496.54 849.56L1501.35 849.48L1506.17 849.39L1510.98 849.3L1515.79 849.19L1520.6 849.08L1525.41 848.97L1530.23 848.84L1535.04 848.71L1539.85 848.58L1544.66 848.43L1549.47 848.28L1554.29 848.12L1559.1 847.96L1563.91 847.79L1568.72 847.61L1573.53 847.43L1578.35 847.24L1583.16 847.04L1587.97 846.83L1592.78 846.62L1597.59 846.41L1602.41 846.19L1607.22 845.96L1612.03 845.72L1616.84 845.48L1621.65 845.23L1626.47 844.98L1631.28 844.72L1636.09 844.46L1640.9 844.19L1645.71 843.91L1650.53 843.63L1655.34 843.34L1660.15 843.05L1664.96 842.75L1669.77 842.44L1674.59 842.14L1679.4 841.82L1684.21 841.5L1689.02 841.18L1693.83 840.85L1698.65 840.51L1703.46 840.17L1708.27 839.83L1713.08 839.48L1717.89 839.13L1722.71 838.77L1727.52 838.41L1732.33 838.04L1737.14 837.67L1741.96 837.3L1746.77 836.92L1751.58 836.53L1756.39 836.15L1761.2 835.76L1766.01 835.36L1770.83 834.97L1775.64 834.57L1780.45 834.16L1785.26 833.75L1790.08 833.34L1794.89 832.93L1799.7 832.51L1804.51 832.09L1809.32 831.67L1814.13 831.25L1818.95 830.82L1823.76 830.39L1828.57 829.96L1833.38 829.52L1838.2 829.09L1843.01 828.65L1847.82 828.21L1852.63 827.77L1857.44 827.32L1862.26 826.88L1867.07 826.43L1871.88 825.98L1876.69 825.53L1881.5 825.08L1886.32 824.63L1891.13 824.18L1895.94 823.72L1900.75 823.27L1905.56 822.82L1910.38 822.36L1915.19 821.91L1920 821.45L1920 0L0 0L0 821Z" fill="#07086C" fill-opacity="1.000000" fill-rule="nonzero"/>
</svg>
