<svg width="16.000000" height="16.000000" viewBox="0 0 16 16" fill="none" xmlns="http://www.w3.org/2000/svg" xmlns:xlink="http://www.w3.org/1999/xlink">
	<desc>
			Created with Pixso.
	</desc>
	<defs/>
	<path id="lock" d="M16 8C16 12.41 12.41 16 8 16C3.58 16 0 12.41 0 8C0 3.58 3.58 0 8 0C12.41 0 16 3.58 16 8ZM10.13 7.33L10.13 6C10.13 4.89 9.17 4 8 4C6.82 4 5.86 4.89 5.86 6L5.86 7.33L4.79 7.33L4.79 12L11.2 12L11.2 7.33L10.13 7.33ZM6.57 7.33L6.57 6C6.57 5.26 7.21 4.66 8 4.66C8.78 4.66 9.42 5.26 9.42 6L9.42 7.33L6.57 7.33Z" fill="#969AF7" fill-opacity="1.000000" fill-rule="evenodd"/>
</svg>
