<svg width="33.000000" height="33.000000" viewBox="0 0 33 33" fill="none" xmlns="http://www.w3.org/2000/svg" xmlns:xlink="http://www.w3.org/1999/xlink">
	<desc>
			Created with Pixso.
	</desc>
	<defs/>
	<circle id="Ellipse 11" cx="16.500000" cy="16.500000" r="16.500000" fill="#FFFFFF" fill-opacity="1.000000"/>
	<path id="Vector" d="M23.66 20.45C23.62 20.33 23.36 20.14 22.88 19.91C22.75 19.83 22.57 19.73 22.33 19.6C22.09 19.47 21.87 19.35 21.68 19.24C21.49 19.13 21.3 19.03 21.13 18.93C21.11 18.91 21.02 18.85 20.88 18.75C20.74 18.65 20.61 18.58 20.52 18.53C20.42 18.48 20.32 18.46 20.22 18.46C20.09 18.46 19.92 18.55 19.71 18.75C19.51 18.94 19.32 19.15 19.15 19.38C18.98 19.61 18.8 19.82 18.61 20.01C18.42 20.21 18.26 20.31 18.14 20.31C18.08 20.31 18 20.29 17.91 20.25C17.82 20.22 17.75 20.19 17.7 20.17C17.65 20.14 17.57 20.1 17.46 20.02C17.34 19.95 17.28 19.91 17.26 19.91C16.33 19.39 15.53 18.8 14.86 18.13C14.19 17.46 13.6 16.66 13.08 15.73C13.08 15.71 13.04 15.65 12.97 15.53C12.89 15.42 12.85 15.34 12.82 15.29C12.8 15.24 12.77 15.17 12.74 15.08C12.7 14.99 12.68 14.91 12.68 14.85C12.68 14.73 12.78 14.57 12.98 14.38C13.17 14.19 13.38 14.01 13.61 13.84C13.84 13.67 14.05 13.48 14.24 13.28C14.44 13.07 14.53 12.9 14.53 12.77C14.53 12.67 14.51 12.57 14.46 12.47C14.41 12.38 14.34 12.26 14.24 12.11C14.14 11.97 14.08 11.88 14.06 11.86C13.96 11.69 13.86 11.5 13.75 11.31C13.64 11.12 13.52 10.9 13.39 10.66C13.26 10.42 13.16 10.24 13.08 10.11C12.84 9.63 12.66 9.37 12.54 9.33C12.49 9.31 12.42 9.3 12.33 9.3C12.14 9.3 11.9 9.34 11.61 9.4C11.31 9.47 11.08 9.54 10.91 9.62C10.57 9.76 10.21 10.18 9.82 10.87C9.48 11.51 9.3 12.14 9.3 12.77C9.3 12.95 9.31 13.13 9.34 13.3C9.36 13.48 9.41 13.67 9.47 13.89C9.53 14.11 9.58 14.27 9.61 14.37C9.65 14.48 9.72 14.67 9.82 14.94C9.93 15.21 9.99 15.38 10.01 15.44C10.25 16.11 10.53 16.71 10.86 17.23C11.39 18.1 12.13 19 13.06 19.93C13.99 20.86 14.89 21.6 15.76 22.13C16.28 22.46 16.88 22.74 17.55 22.98C17.61 23 17.78 23.06 18.05 23.17C18.32 23.27 18.51 23.34 18.62 23.38C18.72 23.41 18.88 23.46 19.1 23.52C19.32 23.59 19.51 23.63 19.69 23.65C19.86 23.68 20.04 23.69 20.22 23.69C20.85 23.69 21.48 23.51 22.12 23.17C22.81 22.78 23.23 22.42 23.37 22.08C23.45 21.91 23.52 21.68 23.58 21.38C23.65 21.09 23.69 20.85 23.69 20.66C23.69 20.57 23.68 20.5 23.66 20.45Z" fill="#07086C" fill-opacity="1.000000" fill-rule="nonzero"/>
</svg>
