<svg width="1920" height="1271" fill="none" xmlns="http://www.w3.org/2000/svg"><path d="M0 690h1920v581H0V690z" fill="url(#paint0_linear_21_164)"/><path d="M1920 29l-230.98 19.852-4.81.33-4.81.324-4.81.32-4.82.314-4.81.31-4.81.303-4.81.299-4.81.293-4.82.288-4.81.281-4.81.277-4.81.27-4.81.265-4.82.26-4.81.252-4.81.248-4.81.24-4.81.236-4.82.228-4.81.223-4.81.216-4.81.21-4.81.204-4.82.197-4.81.19-4.81.185-4.81.177-4.81.172-4.82.164-4.81.157-4.81.152-4.81.144-4.81.137-4.82.13-4.81.124-4.81.117-4.81.11-4.81.103-4.82.096-4.81.088-4.81.082-4.81.075-4.81.068-4.82.06-4.81.054-4.81.046-4.81.04-4.81.032-4.82.025-4.81.018-4.81.01-4.81.004-4.82-.004-4.81-.01-4.81-.018-4.81-.025-4.81-.032-4.82-.04-4.81-.046-4.81-.054-4.81-.06-4.81-.068-4.82-.075-4.81-.082-4.81-.088-4.81-.096-4.81-.103-4.82-.11-4.81-.117-4.81-.123-4.81-.131-4.81-.137-4.82-.145-4.81-.15-4.81-.158-4.81-.164-4.81-.172-4.82-.177-4.81-.184-4.81-.191-4.81-.197-4.81-.204-4.82-.21-4.81-.216-4.81-.223-4.81-.228-4.81-.235-4.82-.241-4.81-.248-4.81-.253-4.81-.259-4.81-.264-4.82-.271-4.81-.277-4.81-.282-4.81-.287-4.81-.293-4.82-.299-4.81-.304-4.81-.309-4.81-.314-4.81-.32-4.82-.325-4.81-.33L726.617 9.149l-4.812-.33-4.812-.324-4.812-.32-4.812-.314-4.813-.31-4.812-.303-4.812-.299-4.812-.293-4.812-.288-4.812-.281-4.812-.277-4.812-.27-4.812-.265-4.812-.26-4.812-.252-4.812-.247-4.812-.242L640 4.038l-4.812-.228-4.812-.223-4.812-.216-4.812-.21-4.812-.204-4.812-.197-4.812-.19-4.812-.185-4.812-.177-4.812-.171-4.812-.165-4.812-.158-4.812-.15-4.812-.145-4.812-.137-4.812-.13-4.812-.124-4.812-.117-4.812-.11-4.812-.103-4.813-.095-4.812-.09-4.812-.081-4.812-.075-4.812-.068-4.812-.06-4.812-.054-4.812-.046-4.812-.04-4.812-.032-4.812-.025-4.812-.018-4.812-.01L476.391 0l-4.812.004-4.812.01-4.812.018-4.812.025-4.812.032-4.812.04-4.812.046-4.812.054-4.812.06-4.812.068-4.812.075-4.812.082-4.812.089-4.812.095-4.812.103-4.812.11-4.812.117-4.812.123-4.812.131-4.813.137-4.812.145-4.812.15-4.812.158-4.812.165-4.812.17-4.812.178-4.812.184-4.812.191-4.812.197-4.812.204-4.812.21-4.812.216-4.812.223-4.812.228-4.812.235-4.812.242-4.812.247-4.812.253-4.812.259-4.812.265-4.812.27-4.812.277-4.812.281-4.812.288-4.812.293-4.812.299-4.812.304-4.812.309-4.812.314-4.812.32-4.812.325-4.812.33L0 28.543V523h1920V29z" fill="url(#paint1_linear_21_164)"/><path d="M0 699l230.977-19.852 4.812-.329 4.812-.325 4.813-.32 4.812-.314 4.812-.309 4.812-.304 4.812-.299 4.812-.293 4.812-.288 4.812-.281 4.812-.277 4.812-.27 4.812-.265 4.812-.259 4.812-.253 4.812-.247 4.812-.242 4.812-.235 4.812-.228 4.812-.223 4.812-.216 4.812-.21 4.812-.204 4.812-.197 4.812-.191 4.812-.184 4.812-.177 4.812-.172 4.812-.164 4.812-.158 4.812-.15 4.812-.145 4.812-.137 4.812-.131 4.812-.123 4.813-.117 4.812-.11 4.812-.103 4.812-.095 4.812-.089 4.812-.082 4.812-.075 4.812-.068 4.812-.06 4.812-.054 4.812-.046 4.812-.04 4.812-.032 4.812-.025 4.812-.018 4.812-.01 4.812-.004 4.812.004 4.812.01 4.812.018 4.812.025 4.812.032 4.812.04 4.812.046 4.812.054 4.812.06 4.812.068 4.812.075 4.812.082 4.812.089 4.812.095 4.812.103 4.812.11 4.813.117 4.812.123 4.812.131 4.812.137 4.812.145 4.812.15 4.812.158 4.812.164 4.812.172 4.812.177 4.812.184 4.812.191 4.812.197 4.812.204 4.812.21 4.812.216 4.812.223 4.812.228 4.812.235 4.812.242 4.812.247 4.812.253 4.812.259 4.812.265 4.812.27 4.812.277 4.812.281 4.812.288 4.812.293 4.812.299 4.812.304 4.812.309 4.812.314 4.813.32 4.812.325 4.812.329 461.951 39.704 4.82.329 4.81.325 4.81.32 4.81.314 4.81.309 4.82.304 4.81.299 4.81.293 4.81.288 4.81.281 4.82.277 4.81.27 4.81.265 4.81.259 4.81.253 4.82.247 4.81.242 4.81.235 4.81.228 4.81.223 4.82.216 4.81.21 4.81.204 4.81.197 4.81.191 4.82.184 4.81.177 4.81.172 4.81.164 4.81.158 4.82.15 4.81.145 4.81.137 4.81.131 4.81.123 4.82.117 4.81.11 4.81.103 4.81.095 4.81.089 4.82.082 4.81.075 4.81.068 4.81.06 4.81.054 4.82.046 4.81.04 4.81.032 4.81.025 4.81.018 4.82.01 4.81.004 4.81-.004 4.81-.01 4.82-.018 4.81-.025 4.81-.032 4.81-.04 4.81-.046 4.82-.054 4.81-.06 4.81-.068 4.81-.075 4.81-.082 4.82-.089 4.81-.095 4.81-.103 4.81-.11 4.81-.117 4.82-.123 4.81-.131 4.81-.137 4.81-.145 4.81-.15 4.82-.158 4.81-.164 4.81-.172 4.81-.177 4.81-.184 4.82-.191 4.81-.197 4.81-.204 4.81-.21 4.81-.216 4.82-.223 4.81-.228 4.81-.235 4.81-.242 4.81-.247 4.82-.253 4.81-.259 4.81-.265 4.81-.27 4.81-.277 4.82-.281 4.81-.288 4.81-.293 4.81-.299 4.81-.304 4.82-.309 4.81-.314 4.81-.32 4.81-.325 4.81-.329L1920 699.456V181H0v518z" fill="url(#paint2_linear_21_164)"/><path d="M1920 53l-230.98 19.852-4.81.33-4.81.324-4.81.32-4.82.314-4.81.31-4.81.303-4.81.299-4.81.293-4.82.287-4.81.282-4.81.277-4.81.27-4.81.265-4.82.26-4.81.252-4.81.248-4.81.24-4.81.236-4.82.228-4.81.223-4.81.216-4.81.21-4.81.204-4.82.197-4.81.19-4.81.185-4.81.178-4.81.17-4.82.165-4.81.157-4.81.151-4.81.145-4.81.137-4.82.13-4.81.124-4.81.117-4.81.11-4.81.103-4.82.095-4.81.09-4.81.081-4.81.075-4.81.068-4.82.06-4.81.054-4.81.046-4.81.04-4.81.032-4.82.025-4.81.018-4.81.01-4.81.004-4.82-.004-4.81-.01-4.81-.018-4.81-.025-4.81-.032-4.82-.04-4.81-.046-4.81-.054-4.81-.06-4.81-.068-4.82-.075-4.81-.082-4.81-.089-4.81-.095-4.81-.103-4.82-.11-4.81-.117-4.81-.123-4.81-.131-4.81-.137-4.82-.145-4.81-.15-4.81-.158-4.81-.165-4.81-.17-4.82-.178-4.81-.184-4.81-.191-4.81-.197-4.81-.204-4.82-.21-4.81-.216-4.81-.223-4.81-.228-4.81-.235-4.82-.242-4.81-.247-4.81-.253-4.81-.259-4.81-.264-4.82-.271-4.81-.276-4.81-.283-4.81-.287-4.81-.293-4.82-.299-4.81-.304-4.81-.309-4.81-.314-4.81-.32-4.82-.325-4.81-.33-461.953-39.703-4.812-.33-4.812-.324-4.812-.32-4.812-.314-4.813-.31-4.812-.303-4.812-.299-4.812-.293-4.812-.288-4.812-.282-4.812-.276-4.812-.27-4.812-.265-4.812-.26-4.812-.252-4.812-.247-4.812-.242-4.812-.235-4.812-.228-4.812-.223-4.812-.216-4.812-.21-4.812-.204-4.812-.197-4.812-.19-4.812-.185-4.812-.178-4.812-.17-4.812-.165-4.812-.157-4.812-.151-4.812-.145-4.812-.137-4.812-.13-4.812-.124-4.812-.117-4.812-.11-4.812-.103-4.813-.096-4.812-.088-4.812-.082-4.812-.075-4.812-.068-4.812-.06-4.812-.054-4.812-.046-4.812-.04-4.812-.032-4.812-.025-4.812-.018-4.812-.01-4.812-.004-4.812.004-4.812.01-4.812.018-4.812.025-4.812.032-4.812.04-4.812.046-4.812.054-4.812.06-4.812.068-4.812.075-4.812.082-4.812.088-4.812.096-4.812.103-4.812.11-4.812.117-4.812.123-4.812.131-4.813.137-4.812.145-4.812.15-4.812.158-4.812.165-4.812.17-4.812.178-4.812.184-4.812.191-4.812.197-4.812.204-4.812.21-4.812.216-4.812.223-4.812.229-4.812.234-4.812.242-4.812.247-4.812.253-4.812.259-4.812.264-4.812.271-4.812.276-4.812.282-4.812.288-4.812.293-4.812.299-4.812.304-4.812.309-4.812.314-4.812.32-4.812.325-4.812.33L0 52.543V547h1920V53z" fill="url(#paint3_linear_21_164)"/><path d="M0 723l230.977-19.852 4.812-.329 4.812-.325 4.813-.32 4.812-.314 4.812-.309 4.812-.304 4.812-.299 4.812-.293 4.812-.288 4.812-.281 4.812-.277 4.812-.27 4.812-.265 4.812-.259 4.812-.253 4.812-.247 4.812-.242 4.812-.235 4.812-.228 4.812-.223 4.812-.216 4.812-.21 4.812-.204 4.812-.197 4.812-.191 4.812-.184 4.812-.177 4.812-.172 4.812-.164 4.812-.158 4.812-.15 4.812-.145 4.812-.137 4.812-.131 4.812-.123 4.813-.117 4.812-.11 4.812-.103 4.812-.095 4.812-.089 4.812-.082 4.812-.075 4.812-.068 4.812-.06 4.812-.054 4.812-.046 4.812-.04 4.812-.032 4.812-.025 4.812-.018 4.812-.01 4.812-.004 4.812.004 4.812.01 4.812.018 4.812.025 4.812.032 4.812.04 4.812.046 4.812.054 4.812.06 4.812.068 4.812.075 4.812.082 4.812.089 4.812.095 4.812.103 4.812.11 4.813.117 4.812.123 4.812.131 4.812.137 4.812.145 4.812.15 4.812.158 4.812.164 4.812.172 4.812.177 4.812.184 4.812.191 4.812.197 4.812.204 4.812.21 4.812.216 4.812.223 4.812.228 4.812.235 4.812.242 4.812.247 4.812.253 4.812.259 4.812.265 4.812.27 4.812.277 4.812.281 4.812.288 4.812.293 4.812.299 4.812.304 4.812.309 4.812.314 4.813.32 4.812.325 4.812.329 461.951 39.704 4.82.329 4.81.325 4.81.32 4.81.314 4.81.309 4.82.304 4.81.299 4.81.293 4.81.288 4.81.281 4.82.277 4.81.27 4.81.265 4.81.259 4.81.253 4.82.247 4.81.242 4.81.235 4.81.228 4.81.223 4.82.216 4.81.21 4.81.204 4.81.197 4.81.191 4.82.184 4.81.177 4.81.172 4.81.164 4.81.158 4.82.15 4.81.145 4.81.137 4.81.131 4.81.123 4.82.117 4.81.11 4.81.103 4.81.095 4.81.089 4.82.082 4.81.075 4.81.068 4.81.06 4.81.054 4.82.046 4.81.04 4.81.032 4.81.025 4.81.018 4.82.01 4.81.004 4.81-.004 4.81-.01 4.82-.018 4.81-.025 4.81-.032 4.81-.04 4.81-.046 4.82-.054 4.81-.06 4.81-.068 4.81-.075 4.81-.082 4.82-.089 4.81-.095 4.81-.103 4.81-.11 4.81-.117 4.82-.123 4.81-.131 4.81-.137 4.81-.145 4.81-.15 4.82-.158 4.81-.164 4.81-.172 4.81-.177 4.81-.184 4.82-.191 4.81-.197 4.81-.204 4.81-.21 4.81-.216 4.82-.223 4.81-.228 4.81-.235 4.81-.242 4.81-.247 4.82-.253 4.81-.259 4.81-.265 4.81-.27 4.81-.277 4.82-.281 4.81-.288 4.81-.293 4.81-.299 4.81-.304 4.82-.309 4.81-.314 4.81-.32 4.81-.325 4.81-.329L1920 723.456V205H0v518z" fill="url(#paint4_linear_21_164)"/><defs><linearGradient id="paint0_linear_21_164" x1="-233.59" y1="-58.892" x2="1856.41" y2="428.954" gradientUnits="userSpaceOnUse"><stop offset=".085" stop-color="#041080"/><stop offset="1" stop-color="#0926C0"/></linearGradient><linearGradient id="paint1_linear_21_164" x1="-233.59" y1="-58.892" x2="1856.41" y2="428.954" gradientUnits="userSpaceOnUse"><stop offset=".085" stop-color="#041080"/><stop offset="1" stop-color="#0926C0"/></linearGradient><linearGradient id="paint2_linear_21_164" x1="-233.59" y1="-58.892" x2="1856.41" y2="428.954" gradientUnits="userSpaceOnUse"><stop offset=".085" stop-color="#041080"/><stop offset="1" stop-color="#0926C0"/></linearGradient><linearGradient id="paint3_linear_21_164" x1="-233.59" y1="-58.892" x2="1856.41" y2="428.954" gradientUnits="userSpaceOnUse"><stop offset=".085" stop-color="#041080"/><stop offset="1" stop-color="#0926C0"/></linearGradient><linearGradient id="paint4_linear_21_164" x1="-233.59" y1="-58.892" x2="1856.41" y2="428.954" gradientUnits="userSpaceOnUse"><stop offset=".085" stop-color="#041080"/><stop offset="1" stop-color="#0926C0"/></linearGradient></defs></svg>