<svg width="1920" height="728" fill="none" xmlns="http://www.w3.org/2000/svg"><path id="Vector" d="M1689.02 48.85L1920 29v670.45l-226.17 19.4-4.81.33-4.81.32-4.81.32-4.81.32-4.82.3-4.81.31-4.81.3-4.81.29-4.81.29-4.82.28-4.81.28-4.81.27-4.81.26-4.81.26-4.82.25-4.81.25-4.81.24-4.81.24-4.81.23-4.82.22-4.81.21-4.81.21-4.81.21-4.81.2-4.82.19-4.81.18-4.81.18-4.81.17-4.81.16-4.82.16-4.81.15-4.81.15-4.81.13-4.81.13-4.82.13-4.81.11-4.81.11-4.81.11-4.81.09-4.82.09-4.81.08-4.81.08-4.81.07-4.81.06-4.82.05-4.81.05-4.81.04-4.81.03-4.82.02-4.81.02-4.81.01-4.81.01-4.81-.01-4.82-.01-4.81-.02-4.81-.02-4.81-.03-4.81-.04-4.82-.05-4.81-.05-4.81-.06-4.81-.07-4.81-.08-4.82-.08-4.81-.09-4.81-.09-4.81-.11-4.81-.11-4.82-.11-4.81-.13-4.81-.13-4.81-.13-4.81-.15-4.82-.15-4.81-.16-4.81-.16-4.81-.17-4.81-.18-4.82-.18-4.81-.19-4.81-.2-4.81-.21-4.82-.21-4.81-.21-4.81-.22-4.81-.23-4.82-.24-4.8-.24-4.82-.25-4.81-.25-4.82-.26-4.8-.26-4.82-.27-4.81-.28-4.82-.28-4.8-.29-4.82-.29-4.8-.3-4.83-.31-4.8-.3-4.82-.32-4.8-.32-4.82-.32-4.81-.33-461.96-39.71-4.81-.33-4.81-.32-4.81-.32-4.81-.31-4.82-.31-4.81-.31-4.81-.3-4.81-.29-4.81-.29-4.82-.28-4.81-.28-4.81-.27-4.81-.26-4.81-.26-4.82-.25-4.81-.25-4.81-.24-4.81-.24-4.81-.22-4.82-.23-4.81-.21-4.81-.21-4.81-.21-4.82-.19-4.81-.2-4.81-.18-4.81-.18-4.81-.17-4.81-.16-4.82-.16-4.81-.15-4.81-.15-4.81-.13-4.82-.13-4.81-.13-4.81-.11-4.81-.11-4.81-.11-4.81-.09-4.82-.09-4.81-.08-4.81-.08-4.81-.07-4.82-.06-4.81-.05-4.81-.05-4.81-.04-4.81-.03-4.82-.02-4.81-.02-4.81-.01h-9.62l-4.82.01-4.81.02-4.81.02-4.81.03-4.81.04-4.82.05-4.81.05-4.81.06-4.81.07-4.81.08-4.82.08-4.81.09-4.81.09-4.81.11-4.81.11-4.82.11-4.81.13-4.81.13-4.81.13-4.81.15-4.82.15-4.81.16-4.81.16-4.81.17-4.81.18-4.82.18-4.81.2-4.81.19-4.81.21-4.81.21-4.82.21-4.81.23-4.81.22-4.81.24-4.81.24-4.82.25-4.81.25-4.81.26-4.81.26-4.81.27-4.82.28-4.81.28-4.81.29-4.81.29-4.81.3-4.82.31-4.81.31-4.81.31-4.81.32-4.82.32-4.81.33L0 699V28.54l226.16-19.4 4.81-.33 4.81-.32 4.82-.32 4.81-.32 4.81-.3 4.81-.31 4.82-.3 4.81-.29 4.81-.29 4.81-.28 4.81-.28 4.82-.27 4.81-.26 4.81-.26 4.81-.25 4.81-.25 4.82-.24 4.81-.24 4.81-.23 4.81-.22 4.81-.21 4.82-.21 4.81-.21 4.81-.19 4.81-.2 4.81-.18 4.82-.18 4.81-.17 4.81-.16 4.81-.16 4.81-.15 4.82-.15 4.81-.13 4.81-.13 4.81-.13 4.81-.11 4.82-.11 4.81-.11 4.81-.09 4.81-.09 4.81-.08 4.82-.08 4.81-.07 4.81-.06 4.81-.05 4.81-.05 4.82-.04 4.81-.03 4.81-.02 4.81-.02 4.81-.01h9.63l4.81.01 4.81.02 4.81.02 4.82.03 4.81.04 4.81.05 4.81.05 4.81.06 4.82.07 4.81.08 4.81.08 4.81.09 4.82.09 4.81.11 4.81.11 4.81.11 4.81.13 4.81.13 4.82.13 4.81.15 4.81.15 4.81.16 4.82.16 4.81.17 4.81.18 4.81.18 4.81.2 4.81.19 4.82.21 4.81.21 4.81.21 4.81.22 4.82.23 4.81.24 4.81.24 4.81.25 4.81.25 4.82.26 4.81.26 4.81.27 4.81.28 4.81.28 4.82.29 4.81.29 4.81.3 4.81.31 4.81.3 4.82.32 4.81.32 4.81.32 4.81.33 461.95 39.71 4.82.33 4.81.32 4.82.32 4.8.32 4.82.3 4.8.31 4.83.3 4.8.29 4.82.29 4.8.28 4.82.28 4.81.27 4.82.26 4.8.26 4.82.25 4.81.25 4.82.24 4.8.24 4.82.23 4.81.22 4.81.21 4.81.21 4.82.21 4.81.2 4.81.19 4.81.18 4.82.18 4.81.17 4.81.16 4.81.16 4.81.15 4.82.15 4.81.13 4.81.13 4.81.13 4.81.11 4.82.11 4.81.11 4.81.09 4.81.09 4.82.08 4.81.08 4.81.07 4.81.06 4.81.05 4.81.05 4.82.04 4.81.03 4.81.02 4.81.02 4.82.01 4.81.01 4.81-.01 4.81-.01 4.81-.02 4.81-.02 4.82-.03 4.81-.04 4.81-.05 4.81-.05 4.82-.06 4.81-.07 4.81-.08 4.81-.08 4.81-.09 4.82-.09 4.81-.11 4.81-.11 4.81-.11 4.81-.13 4.82-.13 4.81-.13 4.81-.15 4.81-.15 4.81-.16 4.82-.16 4.81-.17 4.81-.18 4.81-.18 4.81-.19 4.82-.2 4.81-.21 4.81-.21 4.81-.21 4.81-.22 4.82-.23 4.81-.24 4.81-.24 4.81-.25 4.81-.25 4.82-.26 4.81-.26 4.81-.27 4.81-.28 4.81-.28 4.82-.29 4.81-.29 4.81-.3 4.81-.31 4.81-.3 4.82-.32 4.81-.32 4.81-.32 4.81-.33z" fill="#0809A7" fill-opacity="1" fill-rule="evenodd"/></svg>