<svg width="1920" height="850" fill="none" xmlns="http://www.w3.org/2000/svg"><path id="Vector" d="M0 821l4.81-.46 4.81-.46 4.81-.45 4.81-.46 4.82-.45 4.81-.45 4.81-.46 4.81-.45 4.81-.45 4.82-.45 4.81-.45 4.81-.45 4.81-.45 4.81-.44 4.82-.44 4.81-.45 4.81-.44 4.81-.44 4.81-.43 4.82-.44 4.81-.43 4.81-.43 4.81-.43 4.81-.42 4.82-.42 4.81-.42 4.81-.42 4.81-.41 4.81-.41 4.82-.41 4.81-.4 4.81-.41 4.81-.39 4.81-.4 4.82-.39 4.81-.38 4.81-.39 4.81-.37 4.81-.38 4.82-.37 4.81-.37 4.81-.36 4.81-.36 4.81-.35 4.82-.35 4.81-.34 4.81-.34 4.81-.34 4.81-.33 4.82-.32 4.81-.32 4.81-.31 4.81-.31 4.82-.31 4.81-.3 4.81-.29 4.81-.29 4.81-.28 4.82-.28 4.81-.27 4.81-.26 4.81-.26 4.81-.25 4.82-.25 4.81-.24 4.81-.24 4.81-.22 4.81-.23 4.82-.21 4.81-.21 4.81-.21 4.81-.19 4.81-.2 4.82-.18 4.81-.18 4.81-.17 4.81-.16 4.81-.16 4.82-.15 4.81-.15 4.81-.13 4.81-.13 4.81-.13 4.82-.11 4.81-.11 4.81-.11 4.81-.09 4.81-.09 4.82-.08 4.81-.08 4.81-.07 4.81-.06 4.81-.05 4.82-.05 4.81-.04 4.81-.03 4.81-.02 4.81-.02 4.82-.01h9.62l4.81.01 4.81.02 4.82.02 4.81.03 4.81.04 4.81.05 4.81.05 4.82.06 4.81.07 4.81.08 4.81.08 4.82.09 4.81.09 4.81.11 4.81.11 4.81.11 4.81.13 4.82.13 4.81.13 4.81.15 4.81.15 4.82.16 4.81.16 4.81.17 4.81.18 4.81.18 4.81.2 4.82.19 4.81.21 4.81.21 4.81.21 4.82.23 4.81.22 4.81.24 4.81.24 4.81.25 4.82.25 4.81.26 4.81.26 4.81.27 4.81.28 4.82.28 4.81.29 4.81.29 4.81.3 4.81.31 4.82.31 4.81.31 4.81.32 4.81.32 4.81.33 4.82.34 4.81.34 4.81.34 4.81.35 4.81.35 4.82.36 4.81.36 4.81.37 4.81.37 4.81.38 4.82.37 4.81.39 4.81.38 4.81.39 4.81.4 4.82.39 4.81.41 4.81.4 4.81.41 4.81.41 4.82.41 4.81.42 4.81.42 4.81.42 4.81.42 4.82.43 4.81.43 4.81.43 4.81.44 4.81.43 4.82.44 4.81.44 4.81.45 4.81.44 4.82.44 4.81.45 4.81.45 4.81.45 4.81.45 4.82.45 4.81.45 4.81.46 4.81.45 4.81.45 4.82.46 4.81.45 4.81.46 4.81.46 4.81.45 4.82.46 4.81.45 4.81.46 4.81.45 4.81.45 4.82.46 4.81.45 4.81.45 4.82.45 4.81.45 4.81.45 4.81.45 4.81.44 4.82.45 4.81.44 4.81.44 4.81.44 4.8.43 4.83.44 4.81.43 4.81.43 4.8.43 4.82.42 4.82.42 4.81.42 4.8.42 4.82.41 4.82.41 4.81.41 4.8.41 4.82.4 4.8.39 4.82.4 4.81.39 4.82.38 4.8.39 4.82.38 4.81.37 4.82.37 4.8.37 4.82.36 4.8.36 4.82.35 4.81.35 4.82.34 4.8.34 4.82.34 4.81.33 4.82.32 4.8.32 4.82.32 4.8.3 4.83.31 4.8.3 4.82.29 4.8.29 4.82.28 4.81.28 4.82.27 4.8.26 4.82.26 4.81.25 4.82.25 4.8.24 4.82.24 4.81.23 4.81.22 4.81.21 4.82.21 4.81.21 4.81.2 4.81.19 4.82.18 4.81.18 4.81.17 4.81.16 4.81.16 4.82.15 4.81.15 4.81.13 4.81.13 4.81.13 4.82.11 4.81.11 4.81.11 4.81.09 4.81.09 4.82.08 4.81.08 4.81.07 4.81.06 4.81.05 4.82.05 4.81.04 4.81.03 4.81.02 4.81.02 4.82.01 4.81.01 4.81-.01 4.81-.01 4.81-.02 4.82-.02 4.81-.03 4.81-.04 4.81-.05 4.82-.05 4.81-.06 4.81-.07 4.81-.08 4.81-.08 4.82-.09 4.81-.09 4.81-.11 4.81-.11 4.81-.11 4.82-.13 4.81-.13 4.81-.13 4.81-.15 4.81-.15 4.82-.16 4.81-.16 4.81-.17 4.81-.18 4.81-.18 4.82-.19 4.81-.2 4.81-.21 4.81-.21 4.81-.21 4.82-.22 4.81-.23 4.81-.24 4.81-.24 4.81-.25 4.82-.25 4.81-.26 4.81-.26 4.81-.27 4.81-.28 4.82-.28 4.81-.29 4.81-.29 4.81-.3 4.81-.31 4.82-.3 4.81-.32 4.81-.32 4.81-.32 4.81-.33 4.82-.34 4.81-.34 4.81-.34 4.81-.35 4.81-.35 4.82-.36 4.81-.36 4.81-.37 4.81-.37 4.82-.37 4.81-.38 4.81-.39 4.81-.38 4.81-.39 4.81-.4 4.82-.39 4.81-.4 4.81-.41 4.81-.41 4.82-.41 4.81-.41 4.81-.42 4.81-.42 4.81-.42 4.81-.42 4.82-.43 4.81-.43 4.81-.43 4.81-.44 4.82-.43 4.81-.44 4.81-.44 4.81-.44 4.81-.45 4.82-.44 4.81-.45 4.81-.45 4.81-.45 4.81-.45 4.82-.45 4.81-.45 4.81-.46 4.81-.45 4.81-.45 4.82-.46 4.81-.45 4.81-.46V0H0v821z" fill="#07086C" fill-opacity="1" fill-rule="nonzero"/></svg>