<svg width="33" height="33" fill="none" xmlns="http://www.w3.org/2000/svg"><circle id="Ellipse 11" cx="16.5" cy="16.5" r="16.5" fill="#FFF" fill-opacity="1"/><path id="Vector" d="M23.66 20.45c-.04-.12-.3-.31-.78-.54-.13-.08-.31-.18-.55-.31-.24-.13-.46-.25-.65-.36-.19-.11-.38-.21-.55-.31-.02-.02-.11-.08-.25-.18-.14-.1-.27-.17-.36-.22-.1-.05-.2-.07-.3-.07-.13 0-.3.09-.51.29-.2.19-.39.4-.56.63-.17.23-.35.44-.54.63-.19.2-.35.3-.47.3-.06 0-.14-.02-.23-.06-.09-.03-.16-.06-.21-.08-.05-.03-.13-.07-.24-.15-.12-.07-.18-.11-.2-.11-.93-.52-1.73-1.11-2.4-1.78-.67-.67-1.26-1.47-1.78-2.4 0-.02-.04-.08-.11-.2-.08-.11-.12-.19-.15-.24-.02-.05-.05-.12-.08-.21a.602.602 0 01-.06-.23c0-.12.1-.28.3-.47.19-.19.4-.37.63-.54.23-.17.44-.36.63-.56.2-.21.29-.38.29-.51 0-.1-.02-.2-.07-.3-.05-.09-.12-.21-.22-.36-.1-.14-.16-.23-.18-.25-.1-.17-.2-.36-.31-.55-.11-.19-.23-.41-.36-.65-.13-.24-.23-.42-.31-.55-.24-.48-.42-.74-.54-.78a.584.584 0 00-.21-.03c-.19 0-.43.04-.72.1-.3.07-.53.14-.7.22-.34.14-.7.56-1.09 1.25-.34.64-.52 1.27-.52 1.9 0 .18.01.36.04.53.02.18.07.37.13.59.06.22.11.38.14.48l.21.57c.11.27.17.44.19.5.24.67.52 1.27.85 1.79.53.87 1.27 1.77 2.2 2.7.93.93 1.83 1.67 2.7 2.2.52.33 1.12.61 1.79.85.06.02.23.08.5.19l.57.21c.1.03.26.08.48.14.22.07.41.11.59.13.17.03.35.04.53.04.63 0 1.26-.18 1.9-.52.69-.39 1.11-.75 1.25-1.09.08-.17.15-.4.21-.7.07-.29.11-.53.11-.72 0-.09-.01-.16-.03-.21z" fill="#07086C" fill-opacity="1" fill-rule="nonzero"/></svg>